{
    "asset" : {
        "generator" : "Khronos glTF Blender I/O v1.8.19",
        "version" : "2.0"
    },
    "scene" : 0,
    "scenes" : [
        {
            "name" : "Scene",
            "nodes" : [
                0,
                1,
                2,
                3
            ]
        }
    ],
    "nodes" : [
        {
            "mesh" : 0,
            "name" : "Cylinder",
            "rotation" : [
                0.7071004509925842,
                -0.0029962353873997927,
                0.0029962356202304363,
                0.7071003913879395
            ],
            "scale" : [
                7.225799083709717,
                1,
                7.225799083709717
            ],
            "translation" : [
                0,
                8.866063117980957,
                0
            ]
        },
        {
            "mesh" : 1,
            "name" : "Cylinder.002",
            "rotation" : [
                0.7071065902709961,
                -0.0005512701463885605,
                0.0005512702045962214,
                0.7071065306663513
            ],
            "scale" : [
                9.313246726989746,
                0.596695601940155,
                9.313246726989746
            ],
            "translation" : [
                -0.025823593139648438,
                8.87913703918457,
                0.35482025146484375
            ]
        },
        {
            "mesh" : 2,
            "name" : "Cylinder.001",
            "rotation" : [
                -0.7058268189430237,
                0.0005502724088728428,
                -0.0005522661376744509,
                -0.7083839774131775
            ],
            "scale" : [
                8.371026992797852,
                0.5966954827308655,
                8.371024131774902
            ],
            "translation" : [
                -0.025823593139648438,
                8.87913703918457,
                0.35482025146484375
            ]
        },
        {
            "mesh" : 3,
            "name" : "Cylinder.004",
            "rotation" : [
                0.7071068286895752,
                0,
                0,
                0.7071068286895752
            ],
            "scale" : [
                0.6996568441390991,
                0.29982638359069824,
                0.6996568441390991
            ],
            "translation" : [
                1.394057273864746,
                8.219133377075195,
                0.07724186778068542
            ]
        }
    ],
    "animations" : [
        {
            "channels" : [
                {
                    "sampler" : 0,
                    "target" : {
                        "node" : 1,
                        "path" : "translation"
                    }
                },
                {
                    "sampler" : 1,
                    "target" : {
                        "node" : 1,
                        "path" : "rotation"
                    }
                },
                {
                    "sampler" : 2,
                    "target" : {
                        "node" : 1,
                        "path" : "scale"
                    }
                }
            ],
            "name" : "Cylinder.002Action",
            "samplers" : [
                {
                    "input" : 16,
                    "interpolation" : "LINEAR",
                    "output" : 17
                },
                {
                    "input" : 18,
                    "interpolation" : "LINEAR",
                    "output" : 19
                },
                {
                    "input" : 16,
                    "interpolation" : "LINEAR",
                    "output" : 20
                }
            ]
        },
        {
            "channels" : [
                {
                    "sampler" : 0,
                    "target" : {
                        "node" : 2,
                        "path" : "translation"
                    }
                },
                {
                    "sampler" : 1,
                    "target" : {
                        "node" : 2,
                        "path" : "rotation"
                    }
                },
                {
                    "sampler" : 2,
                    "target" : {
                        "node" : 2,
                        "path" : "scale"
                    }
                }
            ],
            "name" : "Cylinder.002Action.001",
            "samplers" : [
                {
                    "input" : 16,
                    "interpolation" : "LINEAR",
                    "output" : 21
                },
                {
                    "input" : 18,
                    "interpolation" : "LINEAR",
                    "output" : 22
                },
                {
                    "input" : 16,
                    "interpolation" : "LINEAR",
                    "output" : 23
                }
            ]
        },
        {
            "channels" : [
                {
                    "sampler" : 0,
                    "target" : {
                        "node" : 3,
                        "path" : "translation"
                    }
                },
                {
                    "sampler" : 1,
                    "target" : {
                        "node" : 3,
                        "path" : "rotation"
                    }
                },
                {
                    "sampler" : 2,
                    "target" : {
                        "node" : 3,
                        "path" : "scale"
                    }
                }
            ],
            "name" : "Cylinder.003Action.001",
            "samplers" : [
                {
                    "input" : 24,
                    "interpolation" : "STEP",
                    "output" : 25
                },
                {
                    "input" : 24,
                    "interpolation" : "STEP",
                    "output" : 26
                },
                {
                    "input" : 24,
                    "interpolation" : "STEP",
                    "output" : 27
                }
            ]
        }
    ],
    "materials" : [
        {
            "doubleSided" : true,
            "name" : "Material",
            "pbrMetallicRoughness" : {
                "baseColorFactor" : [
                    0.10459870100021362,
                    0.009959852322936058,
                    0.09417788684368134,
                    1
                ],
                "metallicFactor" : 0.9127272367477417,
                "roughnessFactor" : 0.4000000059604645
            }
        },
        {
            "doubleSided" : true,
            "name" : "Material.001",
            "pbrMetallicRoughness" : {
                "metallicFactor" : 0.9854545593261719,
                "roughnessFactor" : 0.5
            }
        }
    ],
    "meshes" : [
        {
            "name" : "Cylinder",
            "primitives" : [
                {
                    "attributes" : {
                        "POSITION" : 0,
                        "NORMAL" : 1,
                        "TEXCOORD_0" : 2
                    },
                    "indices" : 3,
                    "material" : 0
                }
            ]
        },
        {
            "name" : "Cylinder.002",
            "primitives" : [
                {
                    "attributes" : {
                        "POSITION" : 4,
                        "NORMAL" : 5,
                        "TEXCOORD_0" : 6
                    },
                    "indices" : 7,
                    "material" : 0
                }
            ]
        },
        {
            "name" : "Cylinder.003",
            "primitives" : [
                {
                    "attributes" : {
                        "POSITION" : 8,
                        "NORMAL" : 9,
                        "TEXCOORD_0" : 10
                    },
                    "indices" : 11,
                    "material" : 1
                }
            ]
        },
        {
            "name" : "Cylinder.005",
            "primitives" : [
                {
                    "attributes" : {
                        "POSITION" : 12,
                        "NORMAL" : 13,
                        "TEXCOORD_0" : 14
                    },
                    "indices" : 15,
                    "material" : 1
                }
            ]
        }
    ],
    "accessors" : [
        {
            "bufferView" : 0,
            "componentType" : 5126,
            "count" : 4744,
            "max" : [
                0.9951531887054443,
                0.3928143084049225,
                0.9951531887054443
            ],
            "min" : [
                -0.9951531291007996,
                -0.3928143084049225,
                -0.9951531887054443
            ],
            "type" : "VEC3"
        },
        {
            "bufferView" : 1,
            "componentType" : 5126,
            "count" : 4744,
            "type" : "VEC3"
        },
        {
            "bufferView" : 2,
            "componentType" : 5126,
            "count" : 4744,
            "type" : "VEC2"
        },
        {
            "bufferView" : 3,
            "componentType" : 5123,
            "count" : 7116,
            "type" : "SCALAR"
        },
        {
            "bufferView" : 4,
            "componentType" : 5126,
            "count" : 7614,
            "max" : [
                0.9985187649726868,
                0.4534907341003418,
                0.9985187649726868
            ],
            "min" : [
                -0.9985187649726868,
                -1.5465092658996582,
                -0.9985187649726868
            ],
            "type" : "VEC3"
        },
        {
            "bufferView" : 5,
            "componentType" : 5126,
            "count" : 7614,
            "type" : "VEC3"
        },
        {
            "bufferView" : 6,
            "componentType" : 5126,
            "count" : 7614,
            "type" : "VEC2"
        },
        {
            "bufferView" : 7,
            "componentType" : 5123,
            "count" : 11520,
            "type" : "SCALAR"
        },
        {
            "bufferView" : 8,
            "componentType" : 5126,
            "count" : 5002,
            "max" : [
                0.9985437989234924,
                0.4534907341003418,
                0.9985437393188477
            ],
            "min" : [
                -0.9985437989234924,
                -1.5465092658996582,
                -0.9985437393188477
            ],
            "type" : "VEC3"
        },
        {
            "bufferView" : 9,
            "componentType" : 5126,
            "count" : 5002,
            "type" : "VEC3"
        },
        {
            "bufferView" : 10,
            "componentType" : 5126,
            "count" : 5002,
            "type" : "VEC2"
        },
        {
            "bufferView" : 11,
            "componentType" : 5123,
            "count" : 7392,
            "type" : "SCALAR"
        },
        {
            "bufferView" : 12,
            "componentType" : 5126,
            "count" : 980,
            "max" : [
                1.069122076034546,
                1.0008360147476196,
                1.0495678186416626
            ],
            "min" : [
                -5.235767841339111,
                -1.1699851751327515,
                -2.7041287422180176
            ],
            "type" : "VEC3"
        },
        {
            "bufferView" : 13,
            "componentType" : 5126,
            "count" : 980,
            "type" : "VEC3"
        },
        {
            "bufferView" : 14,
            "componentType" : 5126,
            "count" : 980,
            "type" : "VEC2"
        },
        {
            "bufferView" : 15,
            "componentType" : 5123,
            "count" : 1692,
            "type" : "SCALAR"
        },
        {
            "bufferView" : 16,
            "componentType" : 5126,
            "count" : 2,
            "max" : [
                3.3333333333333335
            ],
            "min" : [
                0
            ],
            "type" : "SCALAR"
        },
        {
            "bufferView" : 17,
            "componentType" : 5126,
            "count" : 2,
            "type" : "VEC3"
        },
        {
            "bufferView" : 18,
            "componentType" : 5126,
            "count" : 81,
            "max" : [
                3.3333333333333335
            ],
            "min" : [
                0
            ],
            "type" : "SCALAR"
        },
        {
            "bufferView" : 19,
            "componentType" : 5126,
            "count" : 81,
            "type" : "VEC4"
        },
        {
            "bufferView" : 20,
            "componentType" : 5126,
            "count" : 2,
            "type" : "VEC3"
        },
        {
            "bufferView" : 21,
            "componentType" : 5126,
            "count" : 2,
            "type" : "VEC3"
        },
        {
            "bufferView" : 22,
            "componentType" : 5126,
            "count" : 81,
            "type" : "VEC4"
        },
        {
            "bufferView" : 23,
            "componentType" : 5126,
            "count" : 2,
            "type" : "VEC3"
        },
        {
            "bufferView" : 24,
            "componentType" : 5126,
            "count" : 1,
            "max" : [
                3.1666666666666665
            ],
            "min" : [
                3.1666666666666665
            ],
            "type" : "SCALAR"
        },
        {
            "bufferView" : 25,
            "componentType" : 5126,
            "count" : 1,
            "type" : "VEC3"
        },
        {
            "bufferView" : 26,
            "componentType" : 5126,
            "count" : 1,
            "type" : "VEC4"
        },
        {
            "bufferView" : 27,
            "componentType" : 5126,
            "count" : 1,
            "type" : "VEC3"
        }
    ],
    "bufferViews" : [
        {
            "buffer" : 0,
            "byteLength" : 56928,
            "byteOffset" : 0
        },
        {
            "buffer" : 0,
            "byteLength" : 56928,
            "byteOffset" : 56928
        },
        {
            "buffer" : 0,
            "byteLength" : 37952,
            "byteOffset" : 113856
        },
        {
            "buffer" : 0,
            "byteLength" : 14232,
            "byteOffset" : 151808
        },
        {
            "buffer" : 0,
            "byteLength" : 91368,
            "byteOffset" : 166040
        },
        {
            "buffer" : 0,
            "byteLength" : 91368,
            "byteOffset" : 257408
        },
        {
            "buffer" : 0,
            "byteLength" : 60912,
            "byteOffset" : 348776
        },
        {
            "buffer" : 0,
            "byteLength" : 23040,
            "byteOffset" : 409688
        },
        {
            "buffer" : 0,
            "byteLength" : 60024,
            "byteOffset" : 432728
        },
        {
            "buffer" : 0,
            "byteLength" : 60024,
            "byteOffset" : 492752
        },
        {
            "buffer" : 0,
            "byteLength" : 40016,
            "byteOffset" : 552776
        },
        {
            "buffer" : 0,
            "byteLength" : 14784,
            "byteOffset" : 592792
        },
        {
            "buffer" : 0,
            "byteLength" : 11760,
            "byteOffset" : 607576
        },
        {
            "buffer" : 0,
            "byteLength" : 11760,
            "byteOffset" : 619336
        },
        {
            "buffer" : 0,
            "byteLength" : 7840,
            "byteOffset" : 631096
        },
        {
            "buffer" : 0,
            "byteLength" : 3384,
            "byteOffset" : 638936
        },
        {
            "buffer" : 0,
            "byteLength" : 8,
            "byteOffset" : 642320
        },
        {
            "buffer" : 0,
            "byteLength" : 24,
            "byteOffset" : 642328
        },
        {
            "buffer" : 0,
            "byteLength" : 324,
            "byteOffset" : 642352
        },
        {
            "buffer" : 0,
            "byteLength" : 1296,
            "byteOffset" : 642676
        },
        {
            "buffer" : 0,
            "byteLength" : 24,
            "byteOffset" : 643972
        },
        {
            "buffer" : 0,
            "byteLength" : 24,
            "byteOffset" : 643996
        },
        {
            "buffer" : 0,
            "byteLength" : 1296,
            "byteOffset" : 644020
        },
        {
            "buffer" : 0,
            "byteLength" : 24,
            "byteOffset" : 645316
        },
        {
            "buffer" : 0,
            "byteLength" : 4,
            "byteOffset" : 645340
        },
        {
            "buffer" : 0,
            "byteLength" : 12,
            "byteOffset" : 645344
        },
        {
            "buffer" : 0,
            "byteLength" : 16,
            "byteOffset" : 645356
        },
        {
            "buffer" : 0,
            "byteLength" : 12,
            "byteOffset" : 645372
        }
    ],
    "buffers" : [
        {
            "byteLength" : 645384,
            "uri" : "data:application/octet-stream;base64,"
        }
    ]
}
