<?xml version="1.0" encoding="iso-8859-1"?>
<!-- Uploaded to: SVG Repo, www.svgrepo.com, Generator: SVG Repo Mixer Tools -->
<svg fill="#f8f8f8" version="1.1" id="Layer_1" xmlns="http://www.w3.org/2000/svg" xmlns:xlink="http://www.w3.org/1999/xlink" 
	 viewBox="0 0 512.001 512.001" xml:space="preserve">
<g>
	<g>
		<circle cx="339.137" cy="42.624" r="42.097"/>
	</g>
</g>
<g>
	<g>
		<path d="M441.935,145.963c-0.133-26.372-22.071-47.827-48.443-47.827h-42.34c1.251,0.968,1.446,2.547,0.794,3.735l-7.247,13.182
			l8.152,14.827c0.967,1.76,1.27,3.808,0.853,5.771c-1.596,7.522-11.919,56.144-12.951,61.002c-0.409,1.926-3.181,1.91-3.565-0.023
			c-0.967-4.873-10.608-53.433-12.117-61.031c-0.365-1.836-0.097-3.894,0.875-5.663l8.182-14.883l-7.164-13.03l-0.083-0.152
			c-0.636-1.156-0.487-2.744,0.794-3.735h-34.208c-17.176,0-33.398,9.113-42.334,23.782l-16.652,27.335l-12.514-44.181
			c-1.516-5.356-5.048-9.593-9.538-12.135V68.37h7.449c3.254,0,5.893-2.638,5.893-5.893V35.704c0-3.254-2.638-5.893-5.893-5.893
			h-36.171l-25.767-16.863c-3.908-2.557-9.12,0.248-9.12,4.931v62.424c0,4.668,5.2,7.495,9.12,4.931l25.767-16.863h6.488v26.037
			c-6.489,4.903-9.664,13.44-7.314,21.735l25.195,88.955c4.81,16.986,27.641,20.216,36.891,5.032l39.877-65.463l0.01,342.959
			c0,13.462,10.913,24.375,24.375,24.375c13.461,0,24.375-10.913,24.375-24.375V292.794h10.524v194.83
			c0,13.462,10.913,24.375,24.375,24.375s24.375-10.913,24.375-24.375c0-90.687-0.42-248.077-0.441-342.006
			c0-2.351,1.906-4.258,4.257-4.258c2.351,0,4.498,1.906,4.499,4.257c0,0.179,0.01,0.364,0,0.551v149.227
			c0.057,11.184,9.634,20.21,20.805,20.21c0.033,0,0.07,0,0.105,0c11.219-0.057,19.892-9.196,19.836-20.414v-149.23H441.935z"/>
	</g>
</g>
<g>
	<g>
		<path d="M121.761,40.753H78.403c-4.605,0-8.338,3.733-8.338,8.338s3.733,8.338,8.338,8.338h43.358
			c4.605,0,8.338-3.733,8.338-8.338S126.366,40.753,121.761,40.753z"/>
	</g>
</g>
<g>
	<g>
		<path d="M123.832,11.38L80.474,0.263C76.011-0.88,71.47,1.808,70.326,6.269c-1.144,4.46,1.545,9.004,6.006,10.148
			c47.151,12.09,43.935,11.381,45.435,11.381c3.717,0,7.105-2.504,8.071-6.269C130.982,17.068,128.292,12.524,123.832,11.38z"/>
	</g>
</g>
<g>
	<g>
		<path d="M129.838,76.652c-1.143-4.46-5.688-7.148-10.148-6.006L76.331,81.764c-4.46,1.144-7.15,5.688-6.006,10.148
			c1.144,4.463,5.69,7.15,10.148,6.006L123.832,86.8C128.292,85.656,130.982,81.112,129.838,76.652z"/>
	</g>
</g>
</svg>