<?xml version="1.0" encoding="UTF-8"?>
<svg id="Layer_2" data-name="Layer 2" xmlns="http://www.w3.org/2000/svg" viewBox="0 0 71.91 78.32">
  <g id="Layer_1-2" data-name="Layer 1">
    <path d="M30.45,77.91c-.83,0-1.66,.01-2.49,0-4.13-.07-9.33,1.33-12.1-.66-2.66-1.9-.6-7.43-.87-11.35-.29-4.13-2.57-7-5.31-9.8C-.07,46.15-2.64,32.18,2.82,19.72,8.21,7.44,20.7-.39,34.24,.02c13.1,.39,24.3,9.27,27.22,22.92,1.29,6.05,4.1,10.6,7.96,14.99,3.77,4.29,3.41,6.14-1.96,7.6-3.79,1.03-5.17,2.8-4.58,6.57,.25,1.62-.06,3.33,.06,4.98,.29,4.16-1.77,6.54-5.55,7.75-2.05,.66-4.06,1.47-6.14,2-4.25,1.09-6.79,3.49-6.26,8.13,.29,2.53-.71,3.11-3.05,2.99-3.82-.18-7.65-.05-11.47-.05Zm-3.42-27.84c-.22,1.84,.46,3.54,2.68,3.76,2.27,.23,3.01-1.46,3.41-3.45,1.85-9.27,3.78-18.53,5.66-27.8,.41-1.99,.08-3.83-2.1-4.41-2.23-.6-3.37,.78-3.79,2.87-1.94,9.59-3.88,19.19-5.87,29.03Zm-8.45-25.94c-.61-.18-1.27-.1-1.84,.18-.27,.13-.53,.29-.69,.52-2.35,3.38-5.19,6.59-6.72,10.33-1.24,3.02,2.4,5.1,3.66,7.7,.28,.59,.68,1.14,1.08,1.66,1.35,1.75,2.39,4.67,5.29,2.92,3.22-1.95,1.33-4.5-.33-6.24-3.57-3.74-3.09-7.1,.14-10.65,.75-.83,1.46-1.92,1.66-2.99,.35-1.89-.57-2.95-2.24-3.43Zm37.83,13.3c.45-.75,.53-1.67,.18-2.47-1.37-3.2-3.68-5.69-5.41-8.51-1.09-1.79-2.46-3.42-4.78-1.91-2.24,1.46-1.78,3.55-.27,5.1,4.22,4.33,4.16,8.44-.05,12.68-.55,.55-.87,1.42-1.06,2.2-.31,1.29,.41,2.22,1.41,2.93,.89,.64,2.04,.81,2.77,.12,3.06-2.91,5.05-6.58,7.2-10.14Z"/>
  </g>
</svg>