<?xml version="1.0" encoding="UTF-8"?>
<svg id="Layer_2" data-name="Layer 2" xmlns="http://www.w3.org/2000/svg" viewBox="0 0 72.08 71.32">
  <g id="Layer_1-2" data-name="Layer 1">
    <g>
      <path d="M63.81,71.14c.23-4.67-.49-8-6.26-7.89-5.61,.1-5.88,3.56-5.84,7.79h-10.01c-.66-6.55-1.31-12.95-1.96-19.35,.44-.13,.88-.26,1.32-.39-1.56-1.16-3.12-2.32-5-3.72-1.7,1.2-3.4,2.4-5.09,3.6,.4,.12,.8,.24,1.2,.36-.62,6.42-1.23,12.84-1.89,19.72-8.89,0-17.28,.19-25.65-.18-1.48-.06-3.79-2.25-4.13-3.8-1.64-7.5,.79-12.81,7.72-16.52,12.49-6.7,25.83-9.13,39.71-5.66,5.99,1.5,11.95,3.81,17.35,6.79,6.02,3.32,7.84,9.22,6.28,15.84-.95,4.03-4.08,3.63-7.74,3.4Z"/>
      <path d="M51.3,19.81c-1.38,5.38-5.6,9.71-10.94,11.23-11.82,3.36-22.96-7.56-19.63-19.49C22.23,6.19,26.52,1.93,31.9,.53c11.69-3.05,22.39,7.59,19.4,19.28Z"/>
    </g>
  </g>
</svg>