<?xml version="1.0" encoding="UTF-8"?>
<svg id="Layer_2" data-name="Layer 2" xmlns="http://www.w3.org/2000/svg" viewBox="0 0 3061.46 3061.73">
  <defs>
    <style>
      .cls-1 {
        fill: #fff;
      }

      .cls-1, .cls-2 {
        stroke: #561b58;
        stroke-miterlimit: 10;
        stroke-width: 95px;
      }

      .cls-2 {
        fill: #561b58;
      }
    </style>
  </defs>
  <g id="Layer_1-2" data-name="Layer 1">
    <path class="cls-1" d="M47.5,2909.53V152.2c0-77.73,81.8-128.29,151.33-93.52L2956.16,1437.34c77.07,38.53,77.07,148.51,0,187.05L198.83,3003.05c-69.52,34.76-151.33-15.79-151.33-93.52Z"/>
    <g>
      <path class="cls-2" d="M713.88,1672.42l259.43-583.26h116.04v883.4h-120.89v-565.57l-211.44,442.84h-86.27l-211.42-448.96v571.69h-120.91v-883.4h116.04l259.44,583.26Z"/>
      <path class="cls-2" d="M1548.66,1981.68c-53.87,0-100.86-10.13-140.96-30.38-40.1-20.25-71.28-48.81-93.56-85.67-22.27-36.85-33.41-79.99-33.41-129.41v-14.58c0-44.14,11.03-85.65,33.1-124.54,22.07-38.88,33.9-59.75,70.77-79.61-30.79-17-38.06-50.11-57.1-82.31-19.04-32.2-28.55-66.14-28.55-101.79v-21.26c0-70.07,22.77-126.27,68.34-168.59,45.57-42.32,106.03-63.5,181.37-63.5s135.78,21.18,181.35,63.5c45.57,42.32,68.36,98.52,68.36,168.59v21.26c0,36.47-9.63,70.7-28.86,102.69-19.25,31.99-15.34,59.81-46.92,76.4,37.26,19.86,37.8,45.72,60.28,84.61s33.73,80.4,33.73,124.54v14.58c0,49.42-11.15,92.57-33.43,129.41-22.27,36.87-53.46,65.42-93.56,85.67-40.1,20.25-87.09,30.38-140.96,30.38Zm0-119.08c43.33,0,78.26-12.45,104.8-37.36,26.53-24.91,39.81-57.62,39.81-98.13v-8.52c0-40.9-13.27-73.82-39.81-98.72-26.53-24.91-61.46-37.36-104.8-37.36s-78.28,12.45-104.81,37.36c-26.53,24.91-39.79,58.03-39.79,99.34v9.12c0,40.51,13.26,73.01,39.79,97.51,26.53,24.51,61.46,36.76,104.81,36.76Zm0-399.17c37.67,0,68.03-11.94,91.13-35.84,23.09-23.9,34.64-55.49,34.64-94.79v-8.5c0-37.67-11.55-67.95-34.64-90.84s-53.46-34.33-91.13-34.33-68.05,11.44-91.15,34.33-34.62,53.37-34.62,91.44v9.12c0,38.88,11.53,70.17,34.62,93.87,23.09,23.71,53.48,35.55,91.15,35.55Z"/>
    </g>
  </g>
</svg>