<?xml version="1.0" encoding="UTF-8"?>
<svg id="Layer_2" data-name="Layer 2" xmlns="http://www.w3.org/2000/svg" viewBox="0 0 1044.03 370.56">
  <defs>
    <style>
      .cls-1 {
        fill: #fdfdfd;
      }

      .cls-2 {
        fill: #580d58;
      }
    </style>
  </defs>
  <g id="Layer_1-2" data-name="Layer 1">
    <g>
      <path class="cls-2" d="M701.95,237.83c-26.1,75.08-77.21,120.69-157.1,130.85-40.78,5.19-79.12-4.31-114.22-25.75-34.91-21.32-59.88-51.3-75.58-89.45-31.71,85.18-124.34,133.13-212.46,112.2C59.16,345.85,5.62,275.75,.45,198.49-5.58,108.42,49.8,34.11,127.57,9.32c47.12-15.02,93.45-11.93,138.35,9.59,44.82,21.49,75.35,56.1,93.89,101.74C397.63,44.96,457.4,4.19,542.6,11.84c77.08,6.92,126.61,52.33,152.43,124.52,5.85-19.24,14.52-37.35,26.65-53.6,31.62-42.34,73.67-67.15,126.31-72.79,76.88-8.24,149.45,33.43,180.51,104.26,21.35,48.69,20.59,97.8-1.67,146.26-14.97,32.59-39.46,56.34-69.99,74.35-31.61,18.65-65.79,26.7-102.3,23.93-38.03-2.88-71.56-17.17-100.44-42.07-23.84-20.56-40.68-45.91-50.93-75.66-.41-1.2-.9-2.37-1.22-3.2Zm168.4,117.4c16.76,.17,35.81-3.21,54.31-9.78,34.28-12.17,60.27-34.6,79.94-64.78,28.41-43.6,35.08-90.89,20.85-140.37-8.33-28.98-24.76-53.97-47.83-74.02-37.38-32.48-80.82-46.19-129.86-39.75-41.4,5.44-75.9,24.59-102.63,56.9-23.26,28.12-35.63,60.56-36.83,97.05-.43,12.98-.68,25.93-2.92,38.76-.4,2.29-.38,4.6,.15,6.93,17.19,75.27,84.48,128.91,164.82,129.06ZM529.72,23c-7.29,.64-14.65,.83-21.86,1.98-65.41,10.49-109.64,47.04-132.79,108.94-3.86,10.33-7.45,21.01-4.81,32.58,1.71,7.5,1.03,15.25,1.17,22.9,.5,27.31,7.1,53.03,20.92,76.62,46.67,79.71,148.93,103.21,225.25,51.3,40.15-27.31,62.91-65.78,68.65-114.09,1.86-15.68,.86-31.6,3.91-47.2,.33-1.7-.06-3.64-.47-5.39-17.3-74.13-83.9-127.12-159.97-127.64ZM33.1,203.89c24.8-32.4,48.71-63.65,72.63-94.9-.67,4.76-1.54,9.22-1.53,13.89,.08,42.64,0,85.27,.06,127.91,.03,25.58,22.7,39.57,45.65,28.14,42.99-21.41,85.92-42.94,128.9-64.36,1.77-.88,3.29-2.59,6.18-2.45-4.05,5.33-7.76,10.26-11.51,15.16-13.36,17.44-26.77,34.83-40.08,52.3-15.46,20.31-30.84,40.68-46.25,61.03-.66,.87-2.24,1.4-1.62,2.76,.71,1.56,2.36,.75,3.56,.77,11.53,.16,22.95-1.01,34.13-3.83,57.54-14.49,96.13-49.91,115.88-105.74,3.47-9.82,6.58-19.87,4.25-30.71-.97-4.51-1.03-9.27-1.05-13.91-.17-46.88-17.7-86.05-52.38-117.46-49.12-44.49-124.39-51.76-180.87-17.19-43.17,26.42-68.49,64.91-75.54,115.17-1.5,10.72-1.7,21.47-.44,33.43Z"/>
      <path class="cls-1" d="M870.35,355.23c-80.35-.15-147.63-53.79-164.82-129.06-.53-2.33-.55-4.64-.15-6.93,2.24-12.83,2.49-25.78,2.92-38.76,1.2-36.49,13.57-68.94,36.83-97.05,26.73-32.32,61.23-51.47,102.63-56.9,49.04-6.44,92.48,7.27,129.86,39.75,23.07,20.05,39.5,45.04,47.83,74.02,14.22,49.48,7.55,96.77-20.85,140.37-19.67,30.19-45.66,52.61-79.94,64.78-18.49,6.57-37.54,9.95-54.31,9.78Zm-4.65-259.22c-5.38-.22-11.64,.67-17.82,2.09-39.11,9.01-53.93,50.27-28.94,80.38,1.87,2.25,5.87,4.09,5.36,6.53-.46,2.24-4.32,3.71-6.53,5.69-16.16,14.47-21.97,32.6-17.94,53.65,3.92,20.46,18.08,31.56,36.95,37.24,18.4,5.54,37.14,5.56,55.76,1.01,12.2-2.97,22.85-8.73,31.19-18.55,14.61-17.21,16.77-56.54-13.89-76.15-3.47-2.22-4.1-3.18-.65-6.4,28.38-26.47,19.55-68.27-17.02-81.26-8.22-2.92-16.74-4.29-26.47-4.23Z"/>
      <path class="cls-1" d="M529.72,23c76.07,.52,142.67,53.52,159.97,127.64,.41,1.75,.81,3.68,.47,5.39-3.06,15.6-2.05,31.52-3.91,47.2-5.74,48.31-28.51,86.78-68.65,114.09-76.32,51.91-178.58,28.42-225.25-51.3-13.81-23.59-20.42-49.31-20.92-76.62-.14-7.65,.54-15.4-1.17-22.9-2.64-11.57,.95-22.24,4.81-32.58,23.14-61.9,67.38-98.45,132.79-108.94,7.21-1.16,14.57-1.35,21.86-1.98Zm-2.64,163.74c-12.29-30.05-24.15-58.88-35.8-87.8-1.28-3.18-2.84-4.14-6.18-4.06-10.49,.24-20.99,.09-31.48,.09-7.28,0-7.14,0-7.37,7.15-.77,23.46-1.65,46.91-2.51,70.37-1.17,31.94-2.32,63.88-3.6,95.81-.13,3.19,.56,4.38,4,4.31,10.16-.22,20.32-.22,30.48,0,3.54,.08,4.63-1.21,4.69-4.55,.24-14.65,.62-29.3,.97-43.94,.42-17.35,.87-34.69,1.3-52.19,1.72,.65,1.8,1.98,2.24,2.97,8.5,19.09,17,38.17,25.35,57.33,1.35,3.09,2.85,4.65,6.57,4.47,7.48-.36,14.99-.18,22.48-.07,2.49,.04,3.86-.72,4.83-3.18,2.67-6.78,5.66-13.44,8.54-20.14,5.94-13.8,11.9-27.59,17.86-41.38,.79,1.07,.78,1.97,.8,2.88,.56,30.96,1.2,61.93,1.6,92.89,.05,3.98,1.23,5.01,5.1,4.92,10.82-.25,21.65-.19,32.48-.02,3.06,.05,4.09-.76,3.88-3.9-.65-9.96-1.08-19.94-1.56-29.91-1.17-24.27-2.33-48.55-3.5-72.82-1.07-22.11-2.26-44.21-3.14-66.33-.16-4.08-1.7-4.82-5.36-4.74-10.32,.23-20.66,.2-30.98,0-3.08-.06-4.59,.72-5.78,3.78-6.04,15.45-12.37,30.79-18.65,46.15-5.57,13.63-11.2,27.23-17.25,41.92Z"/>
      <path class="cls-1" d="M33.1,203.89c-1.27-11.96-1.07-22.71,.44-33.43,7.05-50.26,32.37-88.75,75.54-115.17,56.47-34.57,131.75-27.3,180.87,17.19,34.68,31.41,52.2,70.58,52.38,117.46,.02,4.65,.08,9.41,1.05,13.91,2.33,10.84-.78,20.89-4.25,30.71-19.75,55.83-58.35,91.25-115.88,105.74-11.17,2.81-22.59,3.99-34.13,3.83-1.2-.02-2.85,.79-3.56-.77-.62-1.35,.96-1.89,1.62-2.76,15.41-20.35,30.78-40.72,46.25-61.03,13.31-17.47,26.72-34.86,40.08-52.3,3.75-4.9,7.46-9.82,11.51-15.16-2.89-.14-4.41,1.57-6.18,2.45-42.98,21.42-85.91,42.96-128.9,64.36-22.96,11.43-45.62-2.56-45.65-28.14-.06-42.64,.02-85.27-.06-127.91,0-4.67,.86-9.13,1.53-13.89-23.92,31.25-47.83,62.5-72.63,94.9Zm213.83-16.67c-1.16-.8-1.52-1.13-1.95-1.34-32.74-16.38-65.51-32.7-98.19-49.18-4.06-2.05-3.89-.03-3.89,2.89,.04,31.64,.08,63.29-.04,94.93-.02,4.22,1.13,4.24,4.44,2.56,19.89-10.08,39.85-20,59.79-29.97,13.06-6.53,26.13-13.05,39.84-19.9Z"/>
      <path class="cls-2" d="M865.71,96.01c9.73-.07,18.25,1.3,26.47,4.23,36.57,12.99,45.4,54.79,17.02,81.26-3.45,3.22-2.82,4.18,.65,6.4,30.66,19.61,28.5,58.94,13.89,76.15-8.34,9.82-18.99,15.58-31.19,18.55-18.62,4.54-37.37,4.52-55.76-1.01-18.87-5.68-33.03-16.78-36.95-37.24-4.03-21.05,1.78-39.18,17.94-53.65,2.21-1.98,6.07-3.44,6.53-5.69,.5-2.43-3.5-4.27-5.36-6.53-24.99-30.11-10.17-71.37,28.94-80.38,6.17-1.42,12.44-2.31,17.82-2.09Zm1.01,154.33c1.99-.12,4-.13,5.97-.39,7.25-.96,13.86-3.38,16.74-10.73,3.11-7.94,3.16-16.08-2.19-23.23-4.96-6.63-12.33-9.93-19.85-12.79-1.15-.44-2.25-.08-3.38,.35-5.63,2.14-10.96,4.8-15.49,8.85-7.62,6.8-8.93,15.41-6.16,24.61,2.65,8.8,10,11.85,18.38,12.97,1.97,.26,3.98,.26,5.98,.36Zm-.48-120.33c-12.39,.03-19.8,6.53-19.83,17.4-.03,10.29,10.61,22.87,19.75,23.33,8.26,.41,20.38-13.45,20.39-23.33,.01-11.02-7.46-17.43-20.31-17.4Z"/>
      <path class="cls-2" d="M527.08,186.74c6.05-14.69,11.68-28.29,17.25-41.92,6.28-15.36,12.61-30.7,18.65-46.15,1.19-3.06,2.7-3.83,5.78-3.78,10.32,.2,20.66,.22,30.98,0,3.65-.08,5.2,.66,5.36,4.74,.88,22.12,2.07,44.22,3.14,66.33,1.17,24.27,2.33,48.55,3.5,72.82,.48,9.97,.9,19.95,1.56,29.91,.21,3.14-.82,3.95-3.88,3.9-10.82-.17-21.66-.23-32.48,.02-3.86,.09-5.04-.94-5.1-4.92-.39-30.97-1.04-61.93-1.6-92.89-.02-.91,0-1.81-.8-2.88-5.95,13.79-11.91,27.58-17.86,41.38-2.89,6.7-5.87,13.36-8.54,20.14-.97,2.46-2.34,3.22-4.83,3.18-7.49-.11-15-.29-22.48,.07-3.72,.18-5.23-1.38-6.57-4.47-8.35-19.15-16.85-38.24-25.35-57.33-.44-.99-.52-2.32-2.24-2.97-.44,17.5-.89,34.84-1.3,52.19-.35,14.65-.73,29.29-.97,43.94-.05,3.34-1.15,4.63-4.69,4.55-10.16-.22-20.32-.22-30.48,0-3.45,.07-4.13-1.12-4-4.31,1.28-31.93,2.43-63.87,3.6-95.81,.86-23.46,1.74-46.91,2.51-70.37,.24-7.14,.09-7.15,7.37-7.15,10.49,0,20.99,.15,31.48-.09,3.34-.08,4.9,.88,6.18,4.06,11.66,28.91,23.51,57.74,35.8,87.8Z"/>
      <path class="cls-2" d="M246.93,187.21c-13.71,6.84-26.77,13.37-39.84,19.9-19.94,9.97-39.91,19.89-59.79,29.97-3.31,1.68-4.45,1.66-4.44-2.56,.12-31.64,.08-63.29,.04-94.93,0-2.92-.17-4.94,3.89-2.89,32.69,16.48,65.46,32.8,98.19,49.18,.42,.21,.79,.54,1.95,1.34Z"/>
      <path class="cls-1" d="M866.71,250.34c-2-.11-4-.1-5.98-.37-8.38-1.12-15.73-4.17-18.38-12.97-2.77-9.2-1.46-17.81,6.16-24.61,4.54-4.05,9.86-6.71,15.49-8.85,1.12-.43,2.23-.79,3.38-.35,7.52,2.86,14.89,6.16,19.85,12.79,5.35,7.15,5.3,15.29,2.19,23.23-2.88,7.35-9.49,9.77-16.74,10.73-1.97,.26-3.98,.27-5.98,.39Z"/>
      <path class="cls-1" d="M866.23,130.01c12.85-.03,20.33,6.37,20.31,17.4-.01,9.88-12.13,23.74-20.39,23.33-9.14-.46-19.79-13.03-19.75-23.33,.04-10.87,7.44-17.37,19.83-17.4Z"/>
    </g>
  </g>
</svg>