<?xml version="1.0" encoding="UTF-8"?>
<svg id="Layer_2" data-name="Layer 2" xmlns="http://www.w3.org/2000/svg" viewBox="0 0 4017.79 3707.18">
  <defs>
    <style>
      .cls-1 {
        fill: #fff;
      }
    </style>
  </defs>
  <g id="Layer_1-2" data-name="Layer 1">
    <g>
      <path class="cls-1" d="M872.11,1530.25c0-454.36,0-908.71,.02-1363.07,0-17.3-.06-34.53,4.12-51.62C894.58,40.67,961.61,1.17,1017.43,.04c28.72-.58,55.18,5.99,80.7,18.84,90.36,45.49,180.93,90.56,271.41,135.81,822.07,411.09,1644.14,822.19,2466.25,1233.21,18.57,9.28,36.33,19.42,51.2,34.24,69.71,69.51,55.4,187.16-29.1,237.57-7.42,4.43-15.21,8.25-22.95,12.12-543.48,271.79-1086.95,543.58-1630.45,815.33-366.7,183.35-733.41,366.67-1100.17,549.89-11.87,5.93-24.01,11.73-36.63,15.66-94.81,29.54-192.39-40.27-195.4-139.46-.3-9.99-.18-19.98-.18-29.98,0-451,0-902.01,0-1353.01Zm94.39-1.22c0,451.72,0,903.43,.04,1355.15,0,9.98,.25,19.98,.95,29.94,2.39,34.1,40.29,61.64,78.63,45.7,6.75-2.81,13.26-6.2,19.81-9.48,276.22-138.14,552.43-276.33,828.66-414.46,631.61-315.85,1263.24-631.67,1894.86-947.51,6.55-3.27,13.19-6.4,19.53-10.03,35.75-20.48,36.77-74.96,1.01-96.83-5.66-3.47-11.73-6.29-17.68-9.27C2882.08,1017.07,1971.83,561.91,1061.58,106.75c-4.76-2.38-9.57-4.67-14.4-6.91-37.3-17.35-77.92,10.99-79.8,46.09-.54,9.97-.84,19.96-.84,29.95-.04,451.05-.04,902.1-.04,1353.15Z"/>
      <path class="cls-1" d="M194.63,1946.68c-.76-136.14,107.49-257.03,255.87-257.61,151.03-.59,257.5,122.54,258.21,255.43,.74,138.24-110.35,258.28-257.02,258.7-141.66,.4-256.76-114.79-257.06-256.52Z"/>
      <path class="cls-1" d="M1978.78,2949.18c84.16-41.19,196.89-12.31,243.79,86.2,48.12,101.08-4.55,205.15-86.22,243.99-85.43,40.62-197.61,10.34-243.95-86.43-45.17-94.31-1.94-202.42,86.38-243.76Z"/>
      <path class="cls-1" d="M496.61,2902.66c-93.69,1.27-183.27-73.02-183.56-182.12-.3-111.95,91.79-183.53,182.23-183.74,94.59-.22,183.07,75.11,183.61,182.4,.53,104.56-84.76,183.83-182.28,183.45Z"/>
      <path class="cls-1" d="M3713.13,2123.21c-38.01-75.99-6.07-174.48,75.32-213.39,76.78-36.71,174.05-6.92,213.58,75.53,36.32,75.75,9.32,173.16-75.66,213.53-90.46,42.97-182-5.61-213.25-75.67Z"/>
      <path class="cls-1" d="M255.62,2419.68c1.5,67.83-55.17,128.03-127.2,128.34C60.46,2548.31,.4,2493.61,0,2420.6c-.37-67.08,52.37-128.19,127.49-128.33,79.97-.15,129.48,66.16,128.13,127.41Z"/>
      <path class="cls-1" d="M2770,2910.91c-70.58-141.12-11.27-324.04,139.89-396.3,142.6-68.17,323.25-12.85,396.67,140.28,67.45,140.69,17.31,321.59-140.51,396.56-168,79.8-338.02-10.42-396.04-140.53Z"/>
      <path class="cls-1" d="M1097.12,3586.1c-50.1-100.17-8-230.01,99.3-281.3,101.22-48.39,229.45-9.12,281.56,99.57,47.88,99.86,12.29,228.27-99.74,281.49-119.25,56.64-239.93-7.39-281.12-99.75Z"/>
      <path class="cls-1" d="M3496.62,2271.24c52.22-26.06,126.21-9.25,157.21,56.22,28.68,60.55,2.61,129.57-56.37,157.39-58.09,27.4-128.21,5.38-157.34-56.5-31.33-66.55,3.95-133.77,56.5-157.11Z"/>
      <path class="cls-1" d="M554.32,3008.6c52.22-26.06,126.21-9.25,157.21,56.22,28.68,60.55,2.61,129.57-56.37,157.39-58.09,27.4-128.21,5.38-157.34-56.5-31.33-66.55,3.95-133.77,56.5-157.11Z"/>
      <path class="cls-1" d="M1457.28,2968.07c62.56-31.22,151.19-11.09,188.34,67.35,34.35,72.53,3.12,155.21-67.53,188.54-69.59,32.83-153.59,6.45-188.49-67.68-37.53-79.72,4.73-160.25,67.69-188.22Z"/>
      <path class="cls-1" d="M585.67,3367.18c67.45-33.66,163.01-11.95,203.05,72.62,37.04,78.2,3.37,167.34-72.81,203.28-75.03,35.39-165.6,6.95-203.22-72.97-40.46-85.95,5.1-172.78,72.98-202.93Z"/>
      <path class="cls-1" d="M3176.41,2187.28c31.29-16.41,82.5-8.01,104.21,38.04,18.45,39.14,.59,85.93-38.97,104.04-38.61,17.68-84.31,.77-102.83-37.83-20.8-43.36,3.1-89.93,37.59-104.26Z"/>
      <path class="cls-1" d="M1553.88,3308.71c18.12-9.51,47.79-4.64,60.36,22.04,10.69,22.67,.34,49.78-22.58,60.27-22.37,10.24-48.84,.45-59.56-21.91-12.05-25.12,1.8-52.09,21.78-60.39Z"/>
      <path class="cls-1" d="M325.79,3019.92c21.92-11.5,57.79-5.61,73,26.65,12.93,27.42,.42,60.2-27.3,72.89-27.05,12.38-59.06,.54-72.03-26.5-14.57-30.37,2.17-62.99,26.33-73.03Z"/>
      <path class="cls-1" d="M1758.36,2762.6c35.06-18.4,92.45-8.98,116.79,42.64,20.68,43.86,.67,96.3-43.68,116.6-43.27,19.81-94.49,.86-115.24-42.4-23.31-48.59,3.47-100.78,42.13-116.84Z"/>
      <path class="cls-1" d="M898.78,3166.11c37.6-19.73,99.15-9.63,125.24,45.72,22.17,47.03,.71,103.27-46.84,125.04-46.4,21.24-101.33,.92-123.58-45.47-25-52.11,3.72-108.08,45.18-125.3Z"/>
      <path class="cls-1" d="M2007.69,2016.45c-17.19,2.53-170.07,3.88-204.35,2.09-3.18-.17-6.31-1.21-9.87-1.92-2.42-19.22-.87-37.83-1.15-56.36-.28-18.65-.06-37.31-.06-55.97v-221.87c0-18.63,0-37.26,0-56.74-6.61,.42-7.33,5.33-9.09,9-26.44,55.26-52.82,110.54-79.24,165.81-14.93,31.23-29.9,62.43-44.67,93.25-15.11,2.73-122.81,3.3-147.52,.74-43.1-89.69-84.99-180.91-128.21-271.15-6.12,.35-4.98,4.43-5.13,7.22-.32,5.98-.14,11.99-.14,17.98,0,114.6,.02,229.2-.05,343.8,0,7.9,1.03,15.95-1.9,24.6-4.57,.59-9.05,1.65-13.53,1.66-61.29,.11-122.59,.11-183.88,.02-4.52,0-9.05-.91-13.87-1.42-.82-3.22-2.02-5.72-2.02-8.22-.08-321.76-.08-643.52-.08-965.93,4.17-.94,7.25-2.24,10.33-2.24,59.29-.09,118.59-.04,177.88,.02,1.3,0,2.6,.45,5.65,1.02,2.63,5.6,5.8,12.09,8.74,18.69,69.02,155.12,137.99,310.26,207.11,465.34,3.69,8.28,6.2,17.4,13.87,25.83,75.99-170.8,151.2-339.85,226.81-509.81,21.15-2.54,42.34-.87,63.45-1.16,21.32-.29,42.64-.06,63.96-.06s42.57,0,64.79,0c.92,4.44,1.99,8.11,2.36,11.85,.39,3.96,.12,7.99,.12,11.98,0,309.82,0,619.64-.01,929.47,0,7.25-.18,14.5-.28,22.51Z"/>
      <path class="cls-1" d="M2661.63,1506.47c11.55,22.84,22.08,45.85,34.5,67.8,33,58.32,42.99,121.04,37.75,186.92-2.12,26.64-6.76,52.85-15.98,78.01-30.36,82.85-88.58,137.87-170.69,167.71-54.01,19.63-110.17,24.31-167.26,18.93-31.95-3.01-63.22-9.07-93.16-20.86-96.65-38.08-157.74-107.17-176.78-209.74-14.9-80.26-5.75-157.93,37.51-229.27,11.35-18.73,23.4-37.03,36.15-57.15-8.35-16.24-16.81-34.25-26.63-51.47-22.95-40.25-34.71-83.16-34.37-129.61,.25-34.05,1.08-67.97,10.89-100.88,26.76-89.76,86.23-147.96,173.85-178.3,31.64-10.96,64.52-15.68,98.03-16.52,42.9-1.07,85.22,2.33,126.01,16.41,87.64,30.26,147.25,88.28,173.96,178.11,6.28,21.11,10.08,42.8,10.39,64.87,.4,28.58,2.17,57.2-3.4,85.63-4.78,24.38-12.09,47.85-24.41,69.35-10.99,19.19-18.43,39.71-26.35,60.07Zm-145.31,215.16h-.21c0-4.65,.25-9.32-.04-13.96-2.34-37.2-25.26-65.36-61.14-74.76-23.63-6.19-47.44-6.16-71.04,.08-35.89,9.49-58.58,37.68-60.71,75.08-.49,8.62-.51,17.3-.14,25.92,1.59,37.49,21.99,63.86,58.16,74.45,24.1,7.06,48.68,7.25,72.89,.93,38.81-10.14,60.43-37.69,62.21-77.78,.15-3.32,.02-6.65,.02-9.97Zm-17.84-394.64c-.91-8.41-1.16-17.14-2.89-25.56-5.57-27.29-22.21-44.92-48.84-52.54-18.29-5.24-37.03-5.14-55.25,.22-24.94,7.33-41.23,23.85-47.28,49.34-4.84,20.38-4.72,41.11,.16,61.41,6.43,26.72,23,44.77,49.86,51.88,13.53,3.58,27.39,3.71,41.57,1.93,26.31-3.31,54.34-23.01,60.11-60.57,1.31-8.53,1.71-17.19,2.56-26.09Z"/>
    </g>
    <path class="cls-1" d="M2596.67,2721.91c2.51,113.32-92.16,213.89-212.51,214.42-113.54,.49-213.87-90.89-214.54-212.88-.61-112.07,87.49-214.16,213-214.39,133.6-.25,216.32,110.54,214.05,212.85Z"/>
    <path class="cls-1" d="M2437.7,3041.65c43.57-22.86,114.9-11.16,145.14,52.99,25.7,54.51,.83,119.68-54.28,144.91-53.78,24.62-117.43,1.07-143.22-52.69-28.97-60.39,4.32-125.25,52.36-145.21Z"/>
  </g>
</svg>