<?xml version="1.0" encoding="UTF-8"?>
<svg id="Layer_2" data-name="Layer 2" xmlns="http://www.w3.org/2000/svg" viewBox="0 0 550.2 550.4">
  <defs>
    <style>
      .cls-1 {
        fill: #b4b4b4;
      }

      .cls-2 {
        fill: #fdfdfd;
      }

      .cls-3 {
        fill: #570b57;
      }

      .cls-4 {
        fill: #b5b5b5;
      }
    </style>
  </defs>
  <g id="Layer_1-2" data-name="Layer 1">
    <g>
      <path class="cls-3" d="M550.2,275.03c.21,151.41-123.65,275.31-274.71,275.37C124.31,550.46,.23,428.03,0,275.4-.22,123.67,123.62,.18,274.91,0c151.24-.18,275.36,123.69,275.29,275.03Zm-254.01-120.64c-2.94-17.93-14.05-28.82-30.69-34.1-17.47-5.54-35.34-5.5-53.12-1.14-23.26,5.71-36.86,23.38-35.31,45.56-3.18,.19-5.07-2.4-7.58-3.62-16.15-7.87-32.97-8.49-49.99-4.18-21.55,5.47-35.35,24.99-34.89,45.35,.15,6.61,.02,13.23,.03,19.84,0,1.49,.1,2.95-1.12,4.18-3.61,3.62-4.51,8.12-4.31,13.07,.19,4.61,.02,9.23,.05,13.85,.03,4.44,1.43,8.34,4.81,11.35,1.16,1.03,2.03,2.15,2.41,3.68,2.24,8.98,6.03,17.5,12.31,24.08,6.56,6.88,7.83,14.35,7.61,23.25-.21,8.51-3.32,14.49-10.47,18.85-12.34,7.53-24.62,15.19-36.82,22.94-9.04,5.74-15.02,13.83-17.04,24.44-1.32,6.89-.87,13.92-.88,20.9,0,1.8,1.11,1.93,2.48,1.93,24.58-.06,49.16-.1,73.73-.15,16.08,.05,32.17,.14,48.25,.15,8.85,0,17.7-.13,26.55-.19,6.22,.06,12.43,.18,18.65,.18,19.03-.03,38.06-.11,57.1-.17,1.37,.07,2.73,.19,4.1,.19,76.88,0,153.76,0,230.63,0,.75,0,1.5-.07,2.25,.01,1.95,.21,2.62-.59,2.57-2.56-.12-4.74,.14-9.49-.1-14.23-.92-18.24-9.27-31.66-25.86-39.82-16.55-8.15-33.01-16.46-49.48-24.77-7.73-3.9-11.67-10.2-11.58-18.95,.06-5.74,.02-11.48,0-17.22,0-1.39,.15-2.62,1.1-3.82,8.27-10.46,14.58-21.99,18.88-34.62,.47-1.39,.98-2.67,2.62-3.38,7.18-3.11,9.96-8.98,9.95-16.49,0-6.12-.01-12.23,0-18.35,0-4.63-.96-8.93-4.23-12.43-1.04-1.11-1.18-2.38-1.18-3.8,0-10.48-.04-20.97-.03-31.45,.03-21.2-11.35-36.15-31.29-42.46-17.51-5.54-35.4-5.52-53.21-1.15-23.31,5.73-36.8,23.29-35.33,45.67-3,.01-4.82-2.38-7.21-3.61-7.67-3.94-15.94-5.59-24.34-6.83Z"/>
      <path class="cls-2" d="M327.74,164.82c-1.47-22.38,12.03-39.94,35.33-45.67,17.81-4.38,35.71-4.39,53.21,1.15,19.94,6.31,31.32,21.26,31.29,42.46-.01,10.48,.04,20.97,.03,31.45,0,1.41,.14,2.69,1.18,3.8,3.27,3.49,4.24,7.8,4.23,12.43-.01,6.12,0,12.23,0,18.35,0,7.51-2.77,13.38-9.95,16.49-1.65,.71-2.15,1.99-2.62,3.38-4.3,12.63-10.61,24.16-18.88,34.62-.95,1.2-1.1,2.43-1.1,3.82,.01,5.74,.06,11.48,0,17.22-.09,8.75,3.85,15.05,11.58,18.95,16.47,8.31,32.94,16.62,49.48,24.77,16.59,8.17,24.95,21.58,25.86,39.82,.24,4.73-.03,9.49,.1,14.23,.05,1.97-.62,2.77-2.57,2.56-.74-.08-1.5-.01-2.25-.01-76.88,0-153.76,0-230.63,0-1.37,0-2.73-.12-4.1-.19,0-5.74,0-11.48,.03-17.22,.07-12.03,4.32-22.42,12.73-30.94,8.04-8.14,18.61-12.45,28.52-17.54,10.74-5.52,21.35-11.26,31.76-17.34,4.69-2.74,7.62-7.18,8.51-12.59,1.08-6.53,.59-13.16,.74-19.76,.07-2.8-.88-5.03-2.45-7.24-7.82-11.02-13.81-22.92-16.96-36.14-.33-1.36-1.22-2.08-2.15-2.91-2.93-2.63-4.91-5.64-5.53-9.78-1.04-6.98-.44-13.94-.49-20.89-.04-4.97,.4-9.99,4.29-13.84,.76-.75,.95-1.71,.94-2.75-.06-10.22-.1-20.44-.15-30.66Z"/>
      <path class="cls-1" d="M117.39,404.46c-24.58,.05-49.16,.09-73.73,.15-1.37,0-2.48-.13-2.48-1.93,0-6.98-.44-14.01,.88-20.9,2.03-10.62,8.01-18.7,17.04-24.44,12.2-7.76,24.48-15.41,36.82-22.94,7.14-4.36,10.26-10.34,10.47-18.85,.22-8.9-1.05-16.37-7.61-23.25-6.28-6.58-10.06-15.1-12.31-24.08-.38-1.52-1.25-2.65-2.41-3.68-3.39-3-4.78-6.91-4.81-11.35-.03-4.62,.14-9.24-.05-13.85-.2-4.95,.7-9.45,4.31-13.07,1.22-1.23,1.12-2.68,1.12-4.18,0-6.61,.12-13.23-.03-19.84-.45-20.36,13.34-39.88,34.89-45.35,17.01-4.32,33.84-3.69,49.99,4.18,2.51,1.22,4.4,3.81,7.58,3.62,.08,9.09,.12,18.17,.26,27.26,.05,3.03,0,5.81-2.52,8.19-1.37,1.29-1.81,3.39-2.14,5.44-1.3,8.19-.6,16.42-.52,24.61,.05,5.21,1.77,10.06,6.51,13.16,.88,.57,1.35,1.3,1.59,2.38,2.95,13.15,9,24.87,16.67,35.83,1.12,1.6,2.29,3.12,2.22,5.37-.17,5.86-.12,11.72-.06,17.58,.08,8.29-3.76,14.27-10.86,18.18-15.67,8.64-31.45,17.11-47.1,25.8-12.81,7.12-20.71,17.74-23.03,32.48-1.24,7.84-.34,15.66-.7,23.48Z"/>
      <path class="cls-4" d="M327.74,164.82c.05,10.22,.09,20.44,.15,30.66,0,1.04-.18,1.99-.94,2.75-3.89,3.85-4.33,8.87-4.29,13.84,.06,6.96-.55,13.92,.49,20.89,.62,4.14,2.6,7.15,5.53,9.78,.93,.84,1.82,1.55,2.15,2.91,3.15,13.21,9.14,25.12,16.96,36.14,1.57,2.21,2.52,4.44,2.45,7.24-.15,6.59,.33,13.22-.74,19.76-.89,5.41-3.82,9.85-8.51,12.59-10.42,6.08-21.02,11.83-31.76,17.34-9.92,5.09-20.49,9.4-28.52,17.54-8.41,8.53-12.66,18.92-12.73,30.94-.03,5.74-.02,11.48-.03,17.22-19.03,.06-38.06,.14-57.1,.17-6.22,0-12.43-.11-18.65-.18,0-5.24-.02-10.47-.01-15.71,.01-13.27,5.8-23.54,16.76-30.7,13.13-8.58,26.55-16.7,39.76-25.15,5.39-3.45,8.27-8.43,8.07-15.05-.14-4.48-.12-8.98,.02-13.46,.07-2.28-.6-3.95-2.19-5.64-6.29-6.66-11.27-14.18-14.76-22.7-2.04-4.97-2.97-10.51-7.4-14.3-1.34-1.15-1.67-3.02-2.02-4.74-1.33-6.55-.35-13.17-.62-19.75-.16-3.79,1.11-7.14,3.68-9.89,1.56-1.67,2.19-3.46,2.16-5.73-.09-7.11,.09-14.22-.06-21.32-.39-18.65,13.79-37.4,32.9-42.89,9.06-2.6,18.34-3.28,27.71-3,8.4,1.24,16.67,2.88,24.34,6.83,2.38,1.23,4.21,3.62,7.21,3.61Z"/>
      <path class="cls-2" d="M296.19,154.38c-9.38-.27-18.65,.4-27.71,3-19.12,5.49-33.29,24.25-32.9,42.89,.15,7.1-.03,14.21,.06,21.32,.03,2.27-.6,4.06-2.16,5.73-2.57,2.74-3.84,6.09-3.68,9.89,.28,6.58-.71,13.21,.62,19.75,.35,1.72,.68,3.59,2.02,4.74,4.44,3.79,5.37,9.33,7.4,14.3,3.49,8.52,8.47,16.05,14.76,22.7,1.59,1.68,2.26,3.36,2.19,5.64-.14,4.48-.16,8.98-.02,13.46,.2,6.61-2.68,11.6-8.07,15.05-13.21,8.46-26.63,16.58-39.76,25.15-10.96,7.16-16.75,17.42-16.76,30.7,0,5.24,0,10.47,.01,15.71-8.85,.07-17.7,.2-26.55,.19-16.08,0-32.17-.09-48.25-.15,.35-7.82-.54-15.64,.7-23.48,2.33-14.73,10.22-25.36,23.03-32.48,15.65-8.69,31.42-17.15,47.1-25.8,7.1-3.92,10.94-9.89,10.86-18.18-.06-5.86-.11-11.72,.06-17.58,.07-2.25-1.11-3.77-2.22-5.37-7.67-10.96-13.73-22.68-16.67-35.83-.24-1.07-.71-1.8-1.59-2.38-4.75-3.1-6.47-7.96-6.51-13.16-.08-8.2-.77-16.42,.52-24.61,.32-2.05,.77-4.16,2.14-5.44,2.52-2.38,2.57-5.16,2.52-8.19-.14-9.09-.18-18.17-.26-27.26-1.55-22.18,12.05-39.85,35.31-45.56,17.78-4.37,35.65-4.4,53.12,1.14,16.65,5.28,27.76,16.17,30.69,34.1Z"/>
    </g>
  </g>
</svg>