<?xml version="1.0" encoding="UTF-8"?>
<svg id="Layer_2" data-name="Layer 2" xmlns="http://www.w3.org/2000/svg" viewBox="0 0 500.94 495.15">
  <defs>
    <style>
      .cls-1 {
        fill: #fdfdfd;
      }

      .cls-2 {
        fill: #570c57;
      }
    </style>
  </defs>
  <g id="Layer_1-2" data-name="Layer 1">
    <g>
      <path class="cls-2" d="M449.7,208.17c-.05,1.87-.13,3.74-.13,5.61,0,91.94,0,183.88,0,275.82q0,5.54-5.47,5.55c-129.02,0-258.05,0-387.07,0q-5.07,0-5.07-5.02c0-92.32,0-184.63-.02-276.95,0-1.69,.54-3.52-.82-5.02,.12-.21,.2-.46,.37-.62,36.92-34.26,73.84-68.52,110.76-102.78,28.52-26.46,57.05-52.9,85.5-79.42,2.06-1.92,3.24-2.06,5.4-.04,23.68,22.13,47.48,44.14,71.25,66.19,30.25,28.07,60.51,56.12,90.74,84.22,11.58,10.76,23.06,21.63,34.58,32.46Zm-69.58,191.96c0-16.22-.07-32.44,.06-48.66,.02-2.83-.79-3.56-3.58-3.55-32.2,.1-64.39,.09-96.59,0-2.69,0-3.69,.57-3.68,3.48,.1,32.44,.09,64.87,0,97.31,0,2.58,.9,3.07,3.23,3.06,32.45-.06,64.89-.08,97.34,.02,2.71,0,3.28-.86,3.27-3.39-.11-16.09-.05-32.19-.05-48.28Zm-259.24-.4c0,16.21,.05,32.42-.05,48.63-.01,2.44,.39,3.46,3.19,3.45,32.43-.1,64.86-.1,97.29,0,2.7,0,3.3-.91,3.3-3.43-.07-32.3-.08-64.59,0-96.89,0-2.88-1-3.55-3.71-3.54-32.18,.08-64.36,.09-96.54-.01-2.82,0-3.57,.76-3.55,3.55,.13,16.09,.06,32.17,.06,48.26Zm103.68-155.32c0-15.97-.11-31.94,.09-47.91,.04-3.42-1.02-4.1-4.22-4.08-31.95,.12-63.89,.1-95.84,.01-2.82,0-3.8,.56-3.78,3.63,.12,32.06,.12,64.13,0,96.19-.01,3.06,.72,3.98,3.89,3.97,31.95-.12,63.89-.13,95.84,0,3.44,.01,4.11-1.12,4.08-4.29-.15-15.84-.07-31.69-.07-47.53Zm103.83,51.74c16.09,0,32.18-.07,48.27,.07,2.85,.02,3.53-.85,3.52-3.6-.09-32.3-.09-64.6,0-96.9,0-2.69-.86-3.29-3.39-3.28-32.31,.08-64.61,.09-96.92-.01-2.78,0-3.55,.71-3.54,3.52,.1,32.17,.1,64.35,0,96.52,0,3,.86,3.76,3.78,3.74,16.09-.13,32.18-.06,48.27-.06Z"/>
      <path class="cls-1" d="M449.7,208.17c-11.52-10.82-23-21.69-34.58-32.46-30.22-28.1-60.49-56.15-90.74-84.22-23.76-22.05-47.56-44.06-71.25-66.19-2.17-2.02-3.34-1.88-5.4,.04-28.46,26.52-56.99,52.96-85.5,79.42-36.92,34.26-73.84,68.51-110.76,102.78-.17,.16-.25,.41-.37,.62-11.72,10.82-23.43,21.65-35.16,32.46-4.06,3.75-8.04,4.66-11.45,2.64-5.49-3.24-6.06-9.78-1.09-14.51,7.77-7.39,15.65-14.66,23.51-21.96,34.9-32.43,69.8-64.84,104.71-97.26C170.45,73.46,209.31,37.41,248.06,1.26c2.28-2.13,3.38-1.25,5.11,.36,28.84,26.86,57.71,53.67,86.58,80.5,52.25,48.56,104.51,97.11,156.78,145.65,2.88,2.67,5.14,5.58,4.19,9.75-1.59,6.95-8.88,8.96-14.67,4.02-3.42-2.91-6.61-6.08-9.91-9.12-8.81-8.09-17.62-16.17-26.44-24.26Z"/>
      <path class="cls-1" d="M380.12,400.13c0,16.09-.05,32.19,.05,48.28,.02,2.53-.56,3.4-3.27,3.39-32.44-.09-64.89-.08-97.34-.02-2.33,0-3.24-.48-3.23-3.06,.09-32.44,.09-64.88,0-97.31,0-2.92,.99-3.49,3.68-3.48,32.2,.08,64.39,.09,96.59,0,2.79,0,3.6,.72,3.58,3.55-.13,16.22-.06,32.44-.06,48.66Z"/>
      <path class="cls-1" d="M120.88,399.74c0-16.09,.07-32.17-.06-48.26-.02-2.8,.73-3.56,3.55-3.55,32.18,.1,64.36,.09,96.54,.01,2.71,0,3.71,.67,3.71,3.54-.09,32.3-.08,64.59,0,96.89,0,2.52-.6,3.44-3.3,3.43-32.43-.09-64.86-.09-97.29,0-2.8,0-3.2-1.01-3.19-3.45,.09-16.21,.05-32.42,.05-48.63Z"/>
      <path class="cls-1" d="M224.56,244.41c0,15.84-.08,31.69,.07,47.53,.03,3.16-.64,4.3-4.08,4.29-31.95-.13-63.89-.13-95.84,0-3.17,.01-3.9-.91-3.89-3.97,.11-32.06,.11-64.13,0-96.19-.01-3.07,.97-3.64,3.78-3.63,31.95,.09,63.89,.1,95.84-.01,3.2-.01,4.26,.67,4.22,4.08-.2,15.97-.09,31.94-.09,47.91Z"/>
      <path class="cls-1" d="M328.39,296.15c-16.09,0-32.18-.07-48.27,.06-2.92,.02-3.79-.74-3.78-3.74,.11-32.17,.1-64.35,0-96.52,0-2.81,.76-3.53,3.54-3.52,32.31,.1,64.61,.09,96.92,.01,2.53,0,3.4,.59,3.39,3.28-.09,32.3-.09,64.6,0,96.9,0,2.75-.67,3.62-3.52,3.6-16.09-.13-32.18-.07-48.27-.06Z"/>
    </g>
  </g>
</svg>