<?xml version="1.0" encoding="UTF-8"?>
<svg id="Layer_2" data-name="Layer 2" xmlns="http://www.w3.org/2000/svg" viewBox="0 0 71.96 71.92">
  <defs>
    <style>
      .cls-1 {
        fill: #fff;
      }
    </style>
  </defs>
  <g id="Layer_1-2" data-name="Layer 1">
    <g>
      <path class="cls-1" d="M0,66.11c.6-4.68,3.32-8.7,7.57-11.69,3.39-2.38,7.06-4.37,10.39-6.82,4.12-3.03,4.18-5.22,.73-8.97-5.18-5.62-5.14-7.23,.37-12.77q6.63-6.68,13.37,.05c5.52,5.52,10.94,11.14,16.59,16.52,2.82,2.68,2.95,4.91,.01,7.43-1.13,.97-2.12,2.11-3.18,3.16-5.29,5.24-7.11,5.29-12.42,.34-3.97-3.69-6.11-3.6-9.29,.78-2.24,3.08-4.12,6.42-6.21,9.6-2.66,4.04-6.33,6.83-11.03,7.95-4,.95-6.76-1.2-6.89-5.58Zm11.93-3.42c-.37-1.6-1.28-2.72-3.01-2.66-1.69,.06-2.81,1.14-2.79,2.83,.01,1.94,1.25,3.1,3.18,2.91,1.64-.16,2.55-1.34,2.62-3.08Z"/>
      <path class="cls-1" d="M47.22,.01c1.99-.13,3.52,.84,4.85,2.16,5.88,5.85,11.76,11.71,17.59,17.6,2.94,2.97,3.12,6.14,.19,9.2-3.33,3.47-6.76,6.85-10.19,10.23-1.37,1.35-2.9,2.53-4.65,.58-1.73-1.93-.29-3.32,1.01-4.65,1.74-1.78,3.55-3.49,5.27-5.29,1.31-1.38,2.44-2.92,.71-4.75-1.95-2.05-3.56-.81-5.1,.64-.36,.34-.67,.76-1.06,1.05-1.51,1.1-2.42,3.83-4.75,2.77-2.75-1.25-.38-3.33-.34-5.1,.06-3.01-1.66-4.17-4.59-2.79-1.29,.61-2.56,.93-3.59-.34-1.14-1.4-.15-2.46,.76-3.46,1.47-1.62,2.53-3.32,.38-5.09-2.17-1.79-3.52,.08-5.11,1.28-1.97,1.49-3.6,5.78-6.65,2.45-2.69-2.94,1.31-4.5,2.85-6.27,2.39-2.75,5.11-5.21,7.7-7.78C43.81,1.14,45.25,.04,47.22,.01Z"/>
    </g>
  </g>
</svg>