<?xml version="1.0" encoding="UTF-8"?>
<svg id="Layer_2" data-name="Layer 2" xmlns="http://www.w3.org/2000/svg" viewBox="0 0 65.31 71.13">
  <defs>
    <style>
      .cls-1 {
        fill: #fff;
      }
    </style>
  </defs>
  <g id="Layer_1-2" data-name="Layer 1">
    <g>
      <path class="cls-1" d="M22.92,55.94c7.71,.35,15.57,1.58,22.15-4.41,1.51-1.38,3.22-1.84,4.71,0,1.52,1.88,.41,3.36-1.02,4.66-4.33,3.95-9.59,5.54-15.3,5.91-2.29,.15-4.63,.27-6.89,0-7.67-.92-14.28,1-19.64,6.74-.55,.59-1.27,1.04-1.94,1.52-1.58,1.13-3.12,1.1-4.31-.51-1.22-1.65-.72-3.42,.89-4.23,9.45-4.73,11.15-12.33,10.86-22.39-.31-11.27,6.86-19.45,16.36-25.29,5.32-3.27,11.07-5.66,16.76-8.18,4.94-2.19,10-4.21,13.93-8.13,1.07-1.07,2.2-2.11,3.87-1.36,1.79,.81,1.99,2.41,1.95,4.14-.05,1.97,.05,3.95-.02,5.91-.16,4.42-1.35,5.25-5.26,3.18-1.24-.65-1.57-.47-2.2,.43-10.48,14.75-22.51,28.19-35.04,41.2-.06,.06,.04,.28,.14,.82Z"/>
      <path class="cls-1" d="M47.69,47.3c-3.64,.2-5.97,.1-6.04-2.87-.06-2.61,2.01-2.95,4.15-3.07,4.17-.23,8.18-.96,11.06-4.46,1.2-1.46,2.69-2,4.28-.71,1.83,1.47,1.38,3.16,.09,4.75-3.84,4.76-9.27,5.85-13.55,6.35Z"/>
      <path class="cls-1" d="M57.2,32.55c-1.86,.17-3.32-.5-3.69-2.39-.38-1.91,.7-3.2,2.57-3.47,2.09-.3,3.12-1.21,3.38-3.41,.21-1.85,1.61-2.9,3.54-2.42,1.89,.47,2.39,1.97,2.27,3.8-.24,3.94-4.12,7.77-8.07,7.9Z"/>
    </g>
  </g>
</svg>